<svg xmlns="http://www.w3.org/2000/svg" viewBox="0 0 64 64" fill="none">
  <defs>
    <linearGradient id="bg" x1="8" y1="8" x2="56" y2="56" gradientUnits="userSpaceOnUse">
      <stop stop-color="#1179F4" />
      <stop offset="1" stop-color="#7ED321" />
    </linearGradient>
    <linearGradient id="swoosh" x1="10" y1="40" x2="49" y2="40" gradientUnits="userSpaceOnUse">
      <stop stop-color="#8ED6FF" />
      <stop offset="1" stop-color="#D6FF8A" />
    </linearGradient>
  </defs>
  <rect x="4" y="4" width="56" height="56" rx="18" fill="#F8FBFF" />
  <path
    d="M18 14h16l14 11v25H18z"
    fill="url(#bg)"
  />
  <path
    d="M24 26h7v25h-7z"
    fill="#F8FBFF"
  />
  <path
    d="M18 35h18v7H18z"
    fill="#F8FBFF"
  />
  <path
    d="M12 42c5-6 14-10 25-10 6 0 12 1 18 3-6 1-11 4-16 8-6 5-13 8-22 8 0 0-3-3-5-9Z"
    fill="url(#swoosh)"
    opacity="0.95"
  />
  <path
    d="M42 14l6 5-6 5z"
    fill="#D6FF8A"
  />
</svg>
